<svg xmlns="http://www.w3.org/2000/svg" viewBox="0 0 200 200"><defs><style>.cls-1{fill:none;stroke:#222;stroke-linecap:round;stroke-miterlimit:10;stroke-width:8px}</style></defs><g id="Слой_2" data-name="Слой 2"><g id="Touch_ID" data-name="Touch ID"><g id="Large"><path class="cls-1" d="M7.88 72.91a96.54 96.54 0 001 57.46M98.92 4a96 96 0 00-85.28 54M196 97.26a96.08 96.08 0 00-81.12-92.12M94.34 182c-1.91 5.3-3.85 9.81-5.5 13.35M100 100a150.86 150.86 0 011.6 54.17c-.7 4.35-1.58 8.52-2.58 12.46M118.36 148.71q-.31 2.73-.76 5.46A206.91 206.91 0 01106.15 196"/><path class="cls-1" d="M72.34 191.93a135.53 135.53 0 0012.75-37.67c4-23 .53-44-.84-51.43A16.55 16.55 0 0184 100a16 16 0 0131.58-3.64 177.85 177.85 0 013.67 36.39M182.83 128.75c.12 6.37 0 13.25-.36 20.44M68.62 26.39A80.14 80.14 0 01179.34 89s1.72 9.29 2.77 23.74M19.7 152.63a57 57 0 002.43-7.75c2.3-9.93.37-23.95-1-31.55A80.1 80.1 0 0154.7 34.05"/><path class="cls-1" d="M115.92 38a64 64 0 00-79.18 71.76c1.53 8.35 3.5 22.55.86 36.91a77.85 77.85 0 01-6.69 20M163.81 171.69q.85-5 1.53-10.28c4.66-36.95-2.06-71-2.06-71a64.07 64.07 0 00-32.54-46.51"/><path class="cls-1" d="M145.52 84.73a47.56 47.56 0 011.5 5.6c1.87 9.77 5.87 34 3.25 60.83a220.34 220.34 0 01-6.13 34.09M54.33 142a107 107 0 00-1.41-32.64 48 48 0 0185-38.84M43.41 177.63a107 107 0 007.89-19.87"/><path class="cls-1" d="M89 70a32 32 0 0142.35 23.46 194.81 194.81 0 012.89 58.05 197.8 197.8 0 01-9.24 41.27M57.44 186.1c4.76-9.08 9.69-21 11.76-34.1 3.13-19.79.78-37.51-.7-46.25A30.23 30.23 0 0168 100a31.92 31.92 0 017.93-21.09"/></g></g></g></svg>